<?xml version="1.0" standalone="no"?>
<!DOCTYPE svg PUBLIC "-//W3C//DTD SVG 20010904//EN"
 "http://www.w3.org/TR/2001/REC-SVG-20010904/DTD/svg10.dtd">
<svg version="1.0" xmlns="http://www.w3.org/2000/svg"
 width="267.000000pt" height="150.000000pt" viewBox="0 0 267.000000 150.000000"
 preserveAspectRatio="xMidYMid meet">

<g transform="translate(0.000000,150.000000) scale(0.100000,-0.100000)"
fill="#000000" stroke="none">
<path d="M640 1423 c-134 -17 -270 -72 -354 -141 -86 -71 -162 -191 -217 -342
-20 -56 -23 -83 -23 -195 0 -123 2 -135 33 -217 67 -178 165 -286 334 -367
128 -62 192 -75 322 -67 115 7 220 33 308 77 101 51 335 302 497 534 102 146
245 329 286 365 21 18 62 44 92 58 49 22 64 24 148 20 79 -4 103 -10 166 -40
41 -19 91 -50 112 -68 21 -19 41 -29 45 -24 5 5 47 53 95 107 l88 97 -33 31
c-81 76 -240 148 -374 169 -128 20 -312 -11 -428 -72 -80 -43 -195 -158 -276
-278 -81 -118 -270 -373 -342 -461 -78 -94 -162 -164 -248 -207 -71 -35 -80
-37 -170 -37 -115 0 -167 21 -247 100 -62 62 -92 134 -104 254 -8 73 -6 92 11
144 42 125 134 228 238 268 105 40 229 13 367 -80 l70 -48 88 104 c51 60 86
110 82 118 -6 17 -95 88 -153 121 -104 62 -282 95 -413 77z"/>
<path d="M1565 554 l-109 -146 115 -113 c125 -123 184 -160 311 -195 98 -27
238 -27 335 0 86 24 217 83 296 133 l57 37 -87 122 c-47 68 -88 125 -89 127
-2 1 -41 -22 -87 -53 -111 -74 -154 -89 -252 -90 -63 0 -91 5 -133 23 -70 31
-150 120 -199 222 -21 43 -40 78 -43 79 -3 0 -54 -66 -115 -146z"/>
</g>
</svg>
